<svg id="svg" version="1.1" width="640" height="640" viewBox="0 -84.5 640 640" xmlns="http://www.w3.org/2000/svg">
  <defs>
    <linearGradient id="gradient" x1="0%" y1="50%" x2="100%" y2="50%">
      <stop offset="0%" style="stop-color:#7ecfef;stop-opacity:1" />
      <stop offset="50%" style="stop-color:#007FFF;stop-opacity:1" /> <!-- Intermediate Color Stop -->
      <stop offset="100%" style="stop-color:#0052cc;stop-opacity:1" />
    </linearGradient>
  </defs>
  <path d="M358.864 40.470 C 358.605 40.728,354.143 42.467,348.947 44.334 C 284.621 67.446,232.573 113.729,201.443 175.500 C 193.895 190.478,184.375 213.708,185.375 214.708 C 185.621 214.954,187.715 211.857,190.030 207.827 C 211.190 170.984,229.863 146.093,255.968 119.933 C 274.854 101.008,282.998 94.207,302.034 81.466 C 334.671 59.621,367.531 47.376,401.250 44.492 L 409.000 43.829 408.984 47.165 C 408.958 52.704,405.255 68.515,401.010 81.213 C 382.392 136.898,338.799 184.709,277.000 217.224 C 271.225 220.263,263.913 223.788,260.750 225.058 C 254.629 227.517,254.126 228.307,256.511 231.712 C 258.282 234.241,258.484 234.089,249.500 237.002 C 226.868 244.341,200.420 256.771,183.918 267.825 C 173.918 274.522,156.961 289.225,158.000 290.296 C 158.275 290.579,163.450 287.694,169.500 283.883 C 175.550 280.073,186.125 274.083,193.000 270.573 C 264.905 233.856,345.414 226.155,422.387 248.633 C 434.634 252.210,468.194 264.823,465.830 264.961 C 465.461 264.982,459.741 263.440,453.118 261.534 C 422.666 252.769,376.068 246.967,347.500 248.384 C 320.590 249.719,284.052 255.527,283.798 258.510 C 283.694 259.727,291.796 264.541,298.477 267.231 C 306.163 270.326,319.360 270.612,338.812 268.103 C 385.602 262.070,433.627 269.250,469.963 287.712 C 475.721 290.638,480.874 293.474,481.416 294.016 C 482.061 294.661,476.225 295.004,464.450 295.010 C 407.520 295.043,349.853 308.084,300.500 332.086 C 290.412 336.992,272.833 346.834,271.147 348.519 C 269.278 350.389,273.301 349.263,283.966 344.933 C 302.548 337.389,332.479 327.629,351.000 323.074 C 386.266 314.400,413.893 311.393,450.000 312.298 C 474.559 312.914,491.602 315.535,509.306 321.421 C 520.784 325.236,519.954 325.640,504.924 323.552 C 419.615 311.701,330.506 332.225,238.000 385.033 C 224.991 392.460,221.855 394.386,200.762 407.913 C 184.591 418.282,178.817 420.978,172.750 420.990 C 167.060 421.002,164.441 418.869,163.413 413.387 C 160.912 400.055,178.394 366.762,202.136 339.644 L 206.387 334.788 197.443 335.644 C 183.073 337.019,158.519 336.519,150.152 334.681 C 132.833 330.876,120.785 321.947,117.439 310.437 C 112.326 292.850,123.492 270.717,146.912 252.015 C 154.528 245.934,155.702 244.562,156.798 240.464 C 158.983 232.296,168.599 206.900,174.208 194.482 C 184.044 172.710,197.989 150.083,213.332 131.000 C 229.597 110.770,255.612 87.415,277.277 73.590 C 286.990 67.393,310.855 55.436,323.062 50.653 C 335.623 45.730,360.750 38.583,358.864 40.470 M375.000 209.596 C 430.712 216.655,477.541 237.609,509.241 269.661 C 514.049 274.523,518.765 279.625,519.721 281.000 C 521.404 283.419,521.347 283.408,517.980 280.669 C 500.484 266.434,486.556 257.516,468.000 248.668 C 452.323 241.193,438.766 236.261,424.000 232.663 C 395.297 225.667,374.955 223.024,349.705 223.010 C 333.212 223.000,332.865 222.956,330.455 220.545 C 329.105 219.195,328.000 217.046,328.000 215.768 C 328.000 212.845,330.558 209.125,333.357 207.978 C 336.189 206.817,360.536 207.763,375.000 209.596" fill="url(#gradient)" fill-rule="evenodd"/>
</svg>
